# xmcd CD database file
#
# Track frame offsets:
#	150
#	13980
#	30202
#	43790
#	65770
#	80662
#	81350
#	103882
#	121290
#	123435
#	141352
#	161690
#	184692
#	200545
#	224810
#	225635
#	256945
#
# Disc length: 4440 seconds
#
# Revision: 1
# Processed by: cddbd v1.5.1PL0 Copyright (c) Steve Scherf et al.
# Submitted via: CDex 1.51
#
DISCID=fc115611
DTITLE=Stacie Orrico - Genuine
DYEAR=2003
DGENRE=Pop
TTITLE0=Ride
TTITLE1=Don't Look at Me
TTITLE2=0.0 Baby
TTITLE3=Without Love
TTITLE4=Stay True
TTITLE5=Kum-Ba-Ya- (Interlude)
TTITLE6=Genuine
TTITLE7=With a Little Faith
TTITLE8=My Name (Interlude)
TTITLE9=So Pray
TTITLE10=Holdin' On
TTITLE11=Restore My Soul
TTITLE12=Confidant
TTITLE13=Everything
TTITLE14=Replay (Interlude)
TTITLE15=Dear Freiend
TTITLE16=Data Track
EXTD=
EXTT0=
EXTT1=
EXTT2=
EXTT3=
EXTT4=
EXTT5=
EXTT6=
EXTT7=
EXTT8=
EXTT9=
EXTT10=
EXTT11=
EXTT12=
EXTT13=
EXTT14=
EXTT15=
EXTT16=
PLAYORDER=
